<?xml version="1.0" encoding="UTF-8"?>
<!DOCTYPE svg PUBLIC "-//W3C//DTD SVG 1.1//EN" "http://www.w3.org/Graphics/SVG/1.1/DTD/svg11.dtd">
<!-- Creator: CorelDRAW X8 -->
<svg xmlns="http://www.w3.org/2000/svg" xml:space="preserve" width="7.99999in" height="2.99999in" version="1.1" style="shape-rendering:geometricPrecision; text-rendering:geometricPrecision; image-rendering:optimizeQuality; fill-rule:evenodd; clip-rule:evenodd"
viewBox="0 0 8000 3000"
 xmlns:xlink="http://www.w3.org/1999/xlink">
 <defs>
  <style type="text/css">
   <![CDATA[
    .str0 {stroke:#FEFEFE;stroke-width:41.6654}
    .fil3 {fill:#393185;fill-rule:nonzero}
    .fil2 {fill:#FFCC00;fill-rule:nonzero}
    .fil1 {fill:url(#id0)}
    .fil0 {fill:url(#id1)}
   ]]>
  </style>
  <linearGradient id="id0" gradientUnits="userSpaceOnUse" x1="117.882" y1="277.034" x2="5643.01" y2="277.034">
   <stop offset="0" style="stop-opacity:1; stop-color:#FF9900"/>
   <stop offset="1" style="stop-opacity:1; stop-color:#FEFEFE"/>
  </linearGradient>
  <linearGradient id="id1" gradientUnits="userSpaceOnUse" x1="9338.27" y1="2727.91" x2="931.231" y2="2993.71">
   <stop offset="0" style="stop-opacity:1; stop-color:#FF9900"/>
   <stop offset="0.478431" style="stop-opacity:1; stop-color:#FFCB7F"/>
   <stop offset="1" style="stop-opacity:1; stop-color:#FEFEFE"/>
  </linearGradient>
 </defs>
 <g id="Layer_x0020_1">
  <metadata id="CorelCorpID_0Corel-Layer"/>
  <g id="_803007024">
   <polygon class="fil0" points="2398,2697 2427,2712 2472,2724 2533,2735 2601,2745 2682,2753 2788,2762 2887,2769 3031,2777 3174,2783 3363,2789 3582,2792 3836,2793 4069,2790 4267,2786 4440,2779 4608,2771 4766,2760 4894,2748 5002,2734 5075,2718 5114,2704 5129,2687 5129,2669 5151,2653 5204,2639 5264,2627 5332,2617 5407,2609 5497,2600 5640,2589 5792,2582 5950,2575 6140,2570 6352,2566 6579,2566 6775,2568 6970,2572 7107,2576 7235,2581 7349,2587 7445,2593 7552,2601 7642,2610 7727,2620 7803,2632 7854,2646 7893,2664 7901,2688 7893,2701 7854,2719 7809,2733 7727,2751 7651,2766 7575,2775 7477,2789 7378,2800 7235,2814 7085,2825 6902,2838 6737,2847 6548,2856 6389,2863 6209,2869 6004,2875 5733,2880 5527,2883 5309,2885 5149,2885 4945,2884 4772,2883 4576,2880 4371,2877 4206,2873 4076,2869 3940,2865 3797,2858 3668,2853 3517,2845 3388,2838 3252,2829 3101,2819 2988,2809 2905,2801 2806,2790 2731,2780 2655,2770 2572,2756 2512,2743 2458,2730 2428,2720 2406,2707 2376,2694 2376,2684 2398,2697 "/>
   <polygon class="fil1" points="5621,305 5592,290 5546,278 5486,267 5417,257 5336,249 5231,240 5131,233 4987,226 4844,220 4655,214 4437,210 4183,210 3949,212 3752,216 3579,223 3410,231 3252,242 3124,255 3016,269 2943,284 2904,299 2890,315 2890,333 2867,350 2814,363 2755,375 2686,386 2612,394 2521,402 2379,413 2226,421 2068,427 1879,432 1666,436 1440,437 1243,435 1048,431 911,426 783,421 669,416 573,409 466,401 377,393 292,383 215,371 164,356 126,339 118,314 126,301 164,283 209,269 292,252 368,237 443,227 542,214 640,203 783,189 933,177 1117,165 1282,155 1470,146 1629,139 1809,133 2015,128 2286,122 2491,120 2710,118 2869,118 3073,118 3246,119 3443,122 3648,125 3812,129 3942,133 4078,138 4222,144 4350,150 4501,157 4630,165 4766,173 4917,184 5030,193 5114,201 5212,212 5288,222 5364,233 5446,246 5507,259 5560,272 5590,282 5612,295 5643,308 5643,319 5621,305 "/>
   <path class="fil2" d="M2366 2154l-119 0 -143 297c-67,140 -146,210 -239,210 -56,0 -103,-25 -142,-73 -38,-49 -57,-109 -57,-181 0,-59 15,-115 44,-170 30,-54 70,-99 121,-135 38,-26 81,-44 127,-55 47,-11 109,-16 186,-16l32 0 34 -75c47,-104 105,-174 173,-209 44,-22 101,-33 173,-33 18,0 32,5 42,14 10,10 16,23 16,41 0,8 -2,17 -6,27l-3 12 -74 223 32 0 11 0c33,0 49,17 49,50 0,20 -7,38 -20,52 -13,14 -29,21 -48,21l-12 0 -54 0 -48 142 70 0 11 0c32,0 48,16 48,49 0,21 -6,38 -19,52 -13,15 -30,22 -49,22l-11 0 -92 0c-25,0 -45,-8 -61,-23 -15,-15 -23,-35 -23,-60 0,-19 6,-46 17,-80l34 -102zm43 -123l62 -183c-31,2 -56,14 -77,35 -21,20 -45,58 -71,113l-18 35 104 0zm-292 123l-37 0c-82,0 -147,19 -196,55 -30,24 -55,53 -73,88 -18,35 -27,71 -27,106 0,33 9,61 26,84 18,24 39,35 64,35 43,0 81,-34 115,-103l128 -265zm687 512l47 0c37,0 55,15 55,46 0,21 -6,38 -19,49 -13,12 -31,18 -54,18l-80 0c-19,0 -35,-6 -47,-18 -12,-12 -18,-27 -18,-46 0,-14 4,-33 12,-56l89 -262c-16,15 -34,22 -55,22 -29,0 -52,-13 -71,-40 -20,-26 -29,-59 -29,-98 0,-36 7,-73 20,-112 14,-38 31,-69 53,-94 34,-39 75,-58 122,-58 39,0 71,13 96,40 25,27 37,62 37,105 0,24 -5,53 -17,85l-141 419zm23 -384l30 -88c3,-9 5,-19 5,-28 0,-10 -4,-19 -12,-26 -8,-7 -18,-11 -29,-11 -20,0 -38,14 -56,40 -17,27 -26,56 -26,86 0,33 15,50 45,50 9,0 18,-2 27,-7 9,-5 14,-10 16,-16zm473 24l50 0c20,0 34,4 42,11 9,7 13,19 13,35 0,21 -6,37 -19,49 -13,12 -31,18 -54,18l-77 0c-24,0 -40,-11 -48,-34 -16,23 -36,34 -60,34l-63 0c-25,0 -46,-10 -62,-28 -17,-19 -25,-43 -25,-72 0,-17 3,-36 11,-58l58 -173c17,-47 39,-71 68,-71 12,0 22,4 31,14 9,9 13,21 13,35 0,10 -2,22 -7,35l-5 14 -45 133 -5 15c-2,9 -4,16 -4,21 -1,15 8,23 25,23 35,0 59,-17 71,-52l54 -159c16,-48 39,-72 68,-72 12,0 22,5 31,14 9,10 13,21 13,35 0,11 -4,27 -11,49l-63 184zm415 0l47 0c37,0 55,15 55,46 0,21 -7,37 -20,49 -13,12 -30,18 -53,18l-55 0c-25,0 -42,-11 -51,-35 -21,24 -42,35 -62,35l-49 0c-32,0 -57,-14 -77,-41 -19,-27 -29,-62 -29,-106 0,-66 19,-125 57,-177 38,-52 81,-78 129,-78 37,0 64,15 81,46 14,-26 33,-39 56,-39 13,0 23,5 32,14 8,10 13,22 13,36 0,10 -3,21 -7,34l-5 14 -62 184zm-156 3l10 0c24,0 39,-12 47,-35l30 -89c4,-12 6,-22 6,-29 0,-10 -3,-18 -11,-25 -8,-7 -17,-10 -27,-10 -21,0 -42,15 -62,44 -19,29 -29,59 -29,91 0,35 12,53 36,53zm382 -172l-15 43c-13,39 -30,58 -52,58 -13,0 -23,-5 -32,-14 -9,-9 -13,-21 -13,-34 0,-8 3,-22 10,-41l48 -144c12,-34 29,-52 50,-52 22,0 35,12 39,36l4 16c2,8 4,14 8,16 3,2 12,3 25,3l101 0c37,0 56,16 56,47 0,44 -24,66 -71,66l-5 5c-46,52 -68,93 -68,121 0,29 13,43 39,43l54 0c37,0 55,15 55,46 0,21 -6,38 -19,49 -13,12 -31,18 -54,18l-84 0c-29,0 -52,-12 -71,-36 -18,-23 -27,-54 -27,-92 0,-24 5,-48 15,-70 10,-23 27,-51 52,-84l-45 0zm372 169l48 0c37,0 55,16 55,46 0,21 -7,38 -19,49 -13,12 -31,18 -54,18l-69 0c-25,0 -45,-6 -59,-19 -15,-12 -22,-29 -22,-50 0,-12 3,-26 9,-44l71 -209 5 -15c13,-39 34,-58 64,-58 12,0 22,5 31,14 9,10 13,21 13,35 0,11 -4,28 -12,50l-61 183zm57 -447c16,0 30,7 42,21 11,14 17,31 17,51 0,20 -6,37 -17,51 -12,14 -26,21 -42,21 -17,0 -31,-7 -43,-21 -11,-14 -17,-31 -17,-51 0,-20 6,-37 17,-51 12,-14 26,-21 43,-21zm366 447l50 0c20,0 34,4 42,11 8,7 12,19 12,35 0,21 -6,37 -19,49 -13,12 -30,18 -53,18l-78 0c-24,0 -40,-11 -48,-34 -16,23 -35,34 -59,34l-63 0c-25,0 -46,-10 -63,-28 -17,-19 -25,-43 -25,-72 0,-17 4,-36 11,-58l59 -173c16,-47 39,-71 67,-71 12,0 23,4 31,14 9,9 13,21 13,35 0,10 -2,22 -7,35l-4 14 -45 133 -5 15c-3,9 -4,16 -5,21 0,15 8,23 25,23 36,0 60,-17 72,-52l53 -159c16,-48 39,-72 68,-72 12,0 23,5 31,14 9,10 13,21 13,35 0,11 -3,27 -11,49l-62 184zm638 0l52 0c36,0 54,16 54,46 0,21 -6,38 -19,49 -13,12 -31,18 -53,18l-88 0c-19,0 -34,-6 -46,-18 -12,-12 -18,-28 -18,-48 0,-13 4,-31 12,-54l41 -119c2,-6 3,-13 3,-19 0,-22 -9,-33 -28,-33 -15,0 -30,8 -44,23 -14,16 -26,37 -34,63l-49 143c-15,46 -38,69 -69,69 -11,0 -21,-4 -30,-14 -8,-9 -12,-20 -12,-33 0,-10 2,-22 6,-35l5 -14 49 -144c4,-13 6,-23 6,-30 0,-8 -3,-14 -8,-20 -6,-6 -13,-8 -21,-8 -31,0 -55,26 -73,80l-51 149c-16,46 -38,69 -68,69 -12,0 -22,-4 -31,-14 -8,-9 -12,-20 -12,-33 0,-10 2,-22 6,-35l5 -14 86 -253c12,-35 30,-53 54,-53 25,0 40,14 46,42 20,-20 36,-33 48,-40 12,-6 27,-9 45,-9 38,0 67,20 87,60 32,-40 68,-60 108,-60 28,0 51,9 69,28 19,19 28,43 28,71 0,17 -3,35 -9,54l-47 136z"/>
   <path class="fil3 str0" d="M1761 630l659 0c72,0 130,23 175,71 44,47 67,109 67,186 0,110 -67,183 -199,216 154,43 232,132 232,268 0,159 -92,238 -276,238l-658 0 166 -225 0 -525 -166 -229zm399 385l189 0c51,0 77,-34 77,-101 0,-74 -26,-111 -78,-111l-188 0 0 212zm0 420l187 0c62,0 93,-36 93,-108 0,-79 -23,-118 -70,-118l-210 0 0 226zm1008 -838c114,0 213,55 298,165 84,110 126,239 126,388 0,138 -42,257 -127,357 -85,101 -186,151 -303,151 -114,0 -215,-51 -302,-153 -87,-101 -130,-219 -130,-353 0,-152 43,-282 129,-392 87,-109 189,-163 309,-163zm-7 169c-47,0 -85,33 -115,99 -30,66 -44,152 -44,257 0,104 14,188 43,251 29,63 68,94 116,94 49,0 87,-31 116,-94 29,-63 44,-147 44,-251 0,-104 -15,-190 -45,-257 -30,-66 -68,-99 -115,-99zm518 882l0 -491c40,101 96,179 167,235 70,57 148,85 234,85 90,0 135,-26 135,-78 0,-25 -6,-41 -18,-49 -12,-9 -41,-17 -87,-24l-99 -17c-114,-19 -196,-48 -243,-90 -76,-65 -113,-158 -113,-278 0,-113 25,-201 76,-265 50,-65 120,-97 209,-97 86,0 163,26 231,77l19 15 126 -85 0 414c-118,-168 -244,-251 -378,-251 -81,0 -122,26 -122,78 0,24 10,43 30,55 20,13 56,24 111,33l96 17c120,21 201,52 242,94 68,71 102,166 102,284 0,107 -27,191 -81,254 -54,63 -127,95 -218,95 -98,0 -199,-36 -302,-106l-117 95zm1642 -1018l0 423 -169 -262 -319 0 0 214 175 0 124 -115 0 442 -124 -133 -175 0 0 216 319 0 182 -281 0 475 -900 0 165 -227 0 -525 -165 -227 887 0z"/>
  </g>
 </g>
</svg>
